# xmcd CD database file generated by Grip 3.0.3
#
# Track frame offsets:
#       180
#       9308
#       20824
#       33698
#       46724
#       57325
#       69288
#       82387
#       96619
#       106809
#       119594
#       133595
#       144505
#       156784
#       168948
#       182146
#       195843
#
# Disc length: 2765 seconds
#
# Revision: 1
# Processed by: cddbd v1.4PL0 Copyright (c) Steve Scherf et al.
# Submitted via: Grip 3.0.3
#
DISCID=e90acb11
DTITLE=Country Music - Les plus grands succès de la Country Music
DYEAR=1900
DGENRE=Country
TTITLE0=Webb Pierce - Honky Tonk Song
TTITLE1=Merle Haggard - Sing a sad song
TTITLE2=Merle Travis - Smoke Smoke Smoke
TTITLE3=Bobby Dare - Detroit City
TTITLE4=Buck Owens - Act naturally
TTITLE5=Jim Reeves - Mexican Show
TTITLE6=Charlie Rich - The most beautiful girl
TTITLE7=Freddie Fender - Wild side of life
TTITLE8=Dolly Parton - Release me
TTITLE9=Billie Joe Spears - Dallas
TTITLE10=Lex Vanycke and The Lone Rangers - Vaya con dios
TTITLE11=George Jones - Tender years
TTITLE12=Jerry Lee Lewis - Crazy arms
TTITLE13=Warner Mack - Is it wrong
TTITLE14=Kenny Rogers - Shine on ruby Mountain
TTITLE15=Flying Burritos - Too much Honky Tonkin'
TTITLE16=Lynn Anderson - That will be the day
EXTD=
EXTT0=
EXTT1=
EXTT2=
EXTT3=
EXTT4=
EXTT5=
EXTT6=
EXTT7=
EXTT8=
EXTT9=
EXTT10=
EXTT11=
EXTT12=
EXTT13=
EXTT14=
EXTT15=
EXTT16=
PLAYORDER=
